<mxfile host="app.diagrams.net" agent="Mozilla/5.0 (Windows NT 10.0; Win64; x64) AppleWebKit/537.36 (KHTML, like Gecko) Chrome/138.0.0.0 Safari/537.36 Edg/138.0.0.0" version="28.1.0">
  <diagram name="Page-1" id="RwQK2g2WivvjtjlnBLOp">
    <mxGraphModel dx="1880" dy="570" grid="1" gridSize="10" guides="1" tooltips="1" connect="1" arrows="1" fold="1" page="1" pageScale="1" pageWidth="850" pageHeight="1100" math="0" shadow="0">
      <root>
        <mxCell id="0" />
        <mxCell id="1" parent="0" />
        <mxCell id="CFSbIhuwtXft6gbCC_ix-2" value="&lt;p class=&quot;MsoNormal&quot;&gt;&lt;b&gt;&lt;span style=&quot;font-size:18.0pt;line-height:115%&quot;&gt;What is Software Architecture?&lt;/span&gt;&lt;/b&gt;&lt;/p&gt;" style="text;html=1;align=left;verticalAlign=middle;whiteSpace=wrap;rounded=0;" parent="1" vertex="1">
          <mxGeometry x="-80" y="40" width="920" height="40" as="geometry" />
        </mxCell>
        <mxCell id="CFSbIhuwtXft6gbCC_ix-3" value="&lt;br&gt;&lt;div&gt;&lt;span style=&quot;line-height: 115%; font-size: 16px;&quot;&gt;&lt;div style=&quot;&quot;&gt;&lt;ul&gt;&lt;li&gt;Definition: The structure of a system, including its components and relationships.&lt;/li&gt;&lt;li&gt;Why It Matters: Architecture impacts scalability, performance, and maintainability.&lt;/li&gt;&lt;li&gt;Important in System Design &amp;amp; Key Design Considerations.&lt;/li&gt;&lt;ul&gt;&lt;li&gt;Scalability: Ability to handle increased data or traffic.&lt;/li&gt;&lt;li&gt;Maintainability: How easily the system can be updated or modified.&lt;/li&gt;&lt;li&gt;Performance: Efficiency and responsiveness under load.&lt;/li&gt;&lt;/ul&gt;&lt;/ul&gt;&lt;/div&gt;&lt;div style=&quot;&quot;&gt;Keep in mind, the architectural choices you make directly influence system behavior.&lt;/div&gt;&lt;/span&gt;&lt;/div&gt;" style="text;html=1;align=left;verticalAlign=middle;whiteSpace=wrap;rounded=0;" parent="1" vertex="1">
          <mxGeometry x="-80" y="80" width="880" height="150" as="geometry" />
        </mxCell>
        <mxCell id="CFSbIhuwtXft6gbCC_ix-4" value="User" style="shape=umlActor;verticalLabelPosition=bottom;verticalAlign=top;html=1;outlineConnect=0;" parent="1" vertex="1">
          <mxGeometry x="-120" y="400" width="30" height="60" as="geometry" />
        </mxCell>
        <mxCell id="CFSbIhuwtXft6gbCC_ix-5" value="&lt;font style=&quot;font-size: 14px;&quot;&gt;Web Application&lt;/font&gt;" style="rounded=0;whiteSpace=wrap;html=1;" parent="1" vertex="1">
          <mxGeometry y="400" width="120" height="80" as="geometry" />
        </mxCell>
        <mxCell id="CFSbIhuwtXft6gbCC_ix-6" value="" style="endArrow=classic;html=1;rounded=0;" parent="1" edge="1">
          <mxGeometry width="50" height="50" relative="1" as="geometry">
            <mxPoint x="-80" y="440" as="sourcePoint" />
            <mxPoint x="-10" y="440" as="targetPoint" />
          </mxGeometry>
        </mxCell>
        <mxCell id="CFSbIhuwtXft6gbCC_ix-7" value="Caching Load&amp;nbsp;&lt;div&gt;Balancer&lt;/div&gt;" style="rounded=0;whiteSpace=wrap;html=1;" parent="1" vertex="1">
          <mxGeometry x="210" y="420" width="80" height="40" as="geometry" />
        </mxCell>
        <mxCell id="CFSbIhuwtXft6gbCC_ix-8" value="" style="endArrow=classic;html=1;rounded=0;" parent="1" edge="1">
          <mxGeometry width="50" height="50" relative="1" as="geometry">
            <mxPoint x="130" y="439.5" as="sourcePoint" />
            <mxPoint x="200" y="439.5" as="targetPoint" />
          </mxGeometry>
        </mxCell>
        <mxCell id="CFSbIhuwtXft6gbCC_ix-9" value="Slave&lt;div&gt;&lt;span style=&quot;background-color: transparent; color: light-dark(rgb(0, 0, 0), rgb(255, 255, 255));&quot;&gt;DB1&lt;/span&gt;&lt;/div&gt;" style="shape=cylinder3;whiteSpace=wrap;html=1;boundedLbl=1;backgroundOutline=1;size=15;" parent="1" vertex="1">
          <mxGeometry x="360" y="280" width="60" height="80" as="geometry" />
        </mxCell>
        <mxCell id="CFSbIhuwtXft6gbCC_ix-10" value="Slave&amp;nbsp;&lt;div&gt;DB2&lt;/div&gt;" style="shape=cylinder3;whiteSpace=wrap;html=1;boundedLbl=1;backgroundOutline=1;size=15;" parent="1" vertex="1">
          <mxGeometry x="360" y="520" width="60" height="80" as="geometry" />
        </mxCell>
        <mxCell id="CFSbIhuwtXft6gbCC_ix-11" value="" style="endArrow=classic;html=1;rounded=0;" parent="1" edge="1">
          <mxGeometry width="50" height="50" relative="1" as="geometry">
            <mxPoint x="300" y="410" as="sourcePoint" />
            <mxPoint x="360" y="360" as="targetPoint" />
          </mxGeometry>
        </mxCell>
        <mxCell id="CFSbIhuwtXft6gbCC_ix-12" value="" style="endArrow=classic;html=1;rounded=0;" parent="1" edge="1">
          <mxGeometry width="50" height="50" relative="1" as="geometry">
            <mxPoint x="300" y="470" as="sourcePoint" />
            <mxPoint x="360" y="520" as="targetPoint" />
          </mxGeometry>
        </mxCell>
        <mxCell id="CFSbIhuwtXft6gbCC_ix-13" value="Master DB" style="shape=cylinder3;whiteSpace=wrap;html=1;boundedLbl=1;backgroundOutline=1;size=15;" parent="1" vertex="1">
          <mxGeometry x="480" y="400" width="120" height="90" as="geometry" />
        </mxCell>
        <mxCell id="CFSbIhuwtXft6gbCC_ix-14" value="" style="endArrow=classic;html=1;rounded=0;dashed=1;dashPattern=1 4;" parent="1" edge="1">
          <mxGeometry width="50" height="50" relative="1" as="geometry">
            <mxPoint x="480" y="400" as="sourcePoint" />
            <mxPoint x="430" y="360" as="targetPoint" />
          </mxGeometry>
        </mxCell>
        <mxCell id="CFSbIhuwtXft6gbCC_ix-15" value="&lt;font&gt;Replication&lt;/font&gt;" style="text;html=1;align=center;verticalAlign=middle;whiteSpace=wrap;rounded=0;fontSize=11;" parent="1" vertex="1">
          <mxGeometry x="460" y="340" width="60" height="30" as="geometry" />
        </mxCell>
        <mxCell id="CFSbIhuwtXft6gbCC_ix-16" value="" style="endArrow=classic;html=1;rounded=0;dashed=1;dashPattern=1 4;" parent="1" edge="1">
          <mxGeometry width="50" height="50" relative="1" as="geometry">
            <mxPoint x="475" y="490" as="sourcePoint" />
            <mxPoint x="425" y="530" as="targetPoint" />
          </mxGeometry>
        </mxCell>
        <mxCell id="CFSbIhuwtXft6gbCC_ix-17" value="ETL Process" style="rounded=0;whiteSpace=wrap;html=1;" parent="1" vertex="1">
          <mxGeometry x="480" y="640" width="120" height="40" as="geometry" />
        </mxCell>
        <mxCell id="CFSbIhuwtXft6gbCC_ix-18" value="" style="endArrow=classic;html=1;rounded=0;exitX=0.5;exitY=0;exitDx=0;exitDy=0;entryX=0.5;entryY=1;entryDx=0;entryDy=0;entryPerimeter=0;" parent="1" source="CFSbIhuwtXft6gbCC_ix-17" target="CFSbIhuwtXft6gbCC_ix-13" edge="1">
          <mxGeometry width="50" height="50" relative="1" as="geometry">
            <mxPoint x="550" y="540" as="sourcePoint" />
            <mxPoint x="490" y="605" as="targetPoint" />
          </mxGeometry>
        </mxCell>
        <mxCell id="I4dAItv38hqPVrRyuluG-1" value="&lt;font style=&quot;font-size: 24px;&quot;&gt;Monolithic Architecture&amp;nbsp;&lt;/font&gt;" style="text;html=1;align=left;verticalAlign=middle;whiteSpace=wrap;rounded=0;fontSize=17;" vertex="1" parent="1">
          <mxGeometry x="-280" y="840" width="600" height="40" as="geometry" />
        </mxCell>
        <mxCell id="I4dAItv38hqPVrRyuluG-2" value="&lt;ul&gt;&lt;li&gt;&lt;font&gt;Definition: A single unified system where all components are tightly coupled and work as a single unit.&lt;/font&gt;&lt;/li&gt;&lt;li&gt;&lt;font&gt;Pros:&lt;/font&gt;&lt;/li&gt;&lt;ul&gt;&lt;li&gt;&lt;font&gt;Simple to develop and deploy.&lt;/font&gt;&lt;/li&gt;&lt;li&gt;&lt;font&gt;Easier to manage in smaller applications.&lt;/font&gt;&lt;/li&gt;&lt;/ul&gt;&lt;li&gt;&lt;font&gt;Cons:&lt;/font&gt;&lt;/li&gt;&lt;ul&gt;&lt;li&gt;&lt;font&gt;Hard to scale&lt;/font&gt;&lt;/li&gt;&lt;li&gt;&lt;font&gt;Difficult to maintain as the codebase grows.&lt;/font&gt;&lt;/li&gt;&lt;li&gt;&lt;font&gt;High risk of failure: A single bug can take down the entire system.&lt;/font&gt;&lt;/li&gt;&lt;/ul&gt;&lt;li&gt;&lt;font&gt;Use Cases: Small-scale applications, startups, simple CRUD-based apps.&lt;/font&gt;&lt;/li&gt;&lt;/ul&gt;" style="text;html=1;align=left;verticalAlign=middle;whiteSpace=wrap;rounded=0;fontSize=14;" vertex="1" parent="1">
          <mxGeometry x="-280" y="880" width="600" height="200" as="geometry" />
        </mxCell>
        <mxCell id="I4dAItv38hqPVrRyuluG-3" value="" style="rounded=1;whiteSpace=wrap;html=1;" vertex="1" parent="1">
          <mxGeometry x="480" y="760" width="240" height="440" as="geometry" />
        </mxCell>
        <mxCell id="I4dAItv38hqPVrRyuluG-4" value="&lt;font style=&quot;font-size: 14px;&quot;&gt;Database&lt;/font&gt;" style="shape=cylinder3;whiteSpace=wrap;html=1;boundedLbl=1;backgroundOutline=1;size=15;" vertex="1" parent="1">
          <mxGeometry x="545" y="1080" width="110" height="100" as="geometry" />
        </mxCell>
        <mxCell id="I4dAItv38hqPVrRyuluG-5" value="" style="rounded=0;whiteSpace=wrap;html=1;" vertex="1" parent="1">
          <mxGeometry x="510" y="770" width="180" height="250" as="geometry" />
        </mxCell>
        <mxCell id="I4dAItv38hqPVrRyuluG-6" value="" style="endArrow=classic;html=1;rounded=0;entryX=0.5;entryY=0;entryDx=0;entryDy=0;entryPerimeter=0;strokeWidth=2;" edge="1" parent="1" target="I4dAItv38hqPVrRyuluG-4">
          <mxGeometry width="50" height="50" relative="1" as="geometry">
            <mxPoint x="600" y="1020" as="sourcePoint" />
            <mxPoint x="650" y="970" as="targetPoint" />
          </mxGeometry>
        </mxCell>
        <mxCell id="I4dAItv38hqPVrRyuluG-7" value="&lt;font style=&quot;font-size: 18px;&quot;&gt;UI&lt;/font&gt;" style="rounded=0;whiteSpace=wrap;html=1;" vertex="1" parent="1">
          <mxGeometry x="520" y="794" width="160" height="60" as="geometry" />
        </mxCell>
        <mxCell id="I4dAItv38hqPVrRyuluG-8" value="&lt;font style=&quot;font-size: 18px;&quot;&gt;Bussiness Logic&lt;/font&gt;" style="rounded=0;whiteSpace=wrap;html=1;" vertex="1" parent="1">
          <mxGeometry x="520" y="864" width="160" height="60" as="geometry" />
        </mxCell>
        <mxCell id="I4dAItv38hqPVrRyuluG-9" value="&lt;font style=&quot;font-size: 18px;&quot;&gt;Data Access Layer&lt;/font&gt;" style="rounded=0;whiteSpace=wrap;html=1;" vertex="1" parent="1">
          <mxGeometry x="520" y="934" width="160" height="60" as="geometry" />
        </mxCell>
        <mxCell id="I4dAItv38hqPVrRyuluG-10" value="Layered (N-Tier) Architecture" style="text;whiteSpace=wrap;fontSize=24;" vertex="1" parent="1">
          <mxGeometry x="-280" y="1320" width="600" height="40" as="geometry" />
        </mxCell>
        <mxCell id="I4dAItv38hqPVrRyuluG-11" value="&lt;ul&gt;&lt;li&gt;&lt;font style=&quot;font-size: 14px;&quot;&gt;Definition: A system split into multiple layers (e.g., Presentation, Business Logic, Data) to separate concerns.&lt;/font&gt;&lt;/li&gt;&lt;li&gt;&lt;font style=&quot;font-size: 14px;&quot;&gt;Pros:&lt;/font&gt;&lt;/li&gt;&lt;ul&gt;&lt;li&gt;&lt;font style=&quot;&quot;&gt;&lt;span style=&quot;font-size: 14px;&quot;&gt;Clear separation of concerns.&lt;/span&gt;&lt;/font&gt;&lt;/li&gt;&lt;li&gt;&lt;font style=&quot;&quot;&gt;&lt;span style=&quot;font-size: 14px;&quot;&gt;Easier to scale and maintain compared to monolithic.&lt;/span&gt;&lt;/font&gt;&lt;/li&gt;&lt;/ul&gt;&lt;li&gt;&lt;span style=&quot;font-size: 14px;&quot;&gt;Cons:&lt;/span&gt;&lt;/li&gt;&lt;ul&gt;&lt;li&gt;&lt;span style=&quot;font-size: 14px;&quot;&gt;Performance overhead due to layers.&lt;/span&gt;&lt;/li&gt;&lt;li&gt;&lt;span style=&quot;font-size: 14px;&quot;&gt;May result in tight coupling between certain layers.&lt;/span&gt;&lt;/li&gt;&lt;/ul&gt;&lt;li&gt;&lt;span style=&quot;font-size: 14px;&quot;&gt;Use Cases: Enterprise applications, CRM systems, Banking applications.&lt;/span&gt;&lt;/li&gt;&lt;/ul&gt;" style="text;html=1;align=left;verticalAlign=middle;whiteSpace=wrap;rounded=0;" vertex="1" parent="1">
          <mxGeometry x="-280" y="1360" width="600" height="160" as="geometry" />
        </mxCell>
        <mxCell id="I4dAItv38hqPVrRyuluG-12" value="" style="rounded=0;whiteSpace=wrap;html=1;" vertex="1" parent="1">
          <mxGeometry x="360" y="1280" width="480" height="240" as="geometry" />
        </mxCell>
        <mxCell id="I4dAItv38hqPVrRyuluG-13" value="&lt;font style=&quot;font-size: 18px;&quot;&gt;Application&lt;/font&gt;" style="text;html=1;align=center;verticalAlign=middle;whiteSpace=wrap;rounded=0;" vertex="1" parent="1">
          <mxGeometry x="530" y="1280" width="150" height="30" as="geometry" />
        </mxCell>
        <mxCell id="I4dAItv38hqPVrRyuluG-15" value="&lt;font style=&quot;font-size: 18px;&quot;&gt;User Interface&lt;/font&gt;" style="rounded=0;whiteSpace=wrap;html=1;" vertex="1" parent="1">
          <mxGeometry x="370" y="1320" width="460" height="40" as="geometry" />
        </mxCell>
        <mxCell id="I4dAItv38hqPVrRyuluG-16" value="&lt;font style=&quot;font-size: 18px;&quot;&gt;Business Logic&lt;/font&gt;" style="rounded=0;whiteSpace=wrap;html=1;" vertex="1" parent="1">
          <mxGeometry x="370" y="1390" width="460" height="40" as="geometry" />
        </mxCell>
        <mxCell id="I4dAItv38hqPVrRyuluG-17" value="&lt;font style=&quot;font-size: 18px;&quot;&gt;Data Access&lt;/font&gt;" style="rounded=0;whiteSpace=wrap;html=1;" vertex="1" parent="1">
          <mxGeometry x="370" y="1460" width="460" height="40" as="geometry" />
        </mxCell>
        <mxCell id="I4dAItv38hqPVrRyuluG-18" value="" style="endArrow=classic;html=1;rounded=0;entryX=0.5;entryY=0;entryDx=0;entryDy=0;" edge="1" parent="1" target="I4dAItv38hqPVrRyuluG-16">
          <mxGeometry width="50" height="50" relative="1" as="geometry">
            <mxPoint x="600" y="1360" as="sourcePoint" />
            <mxPoint x="650" y="1310" as="targetPoint" />
          </mxGeometry>
        </mxCell>
        <mxCell id="I4dAItv38hqPVrRyuluG-22" value="" style="endArrow=classic;html=1;rounded=0;entryX=0.5;entryY=0;entryDx=0;entryDy=0;" edge="1" parent="1">
          <mxGeometry width="50" height="50" relative="1" as="geometry">
            <mxPoint x="599" y="1430" as="sourcePoint" />
            <mxPoint x="599" y="1460" as="targetPoint" />
          </mxGeometry>
        </mxCell>
        <mxCell id="I4dAItv38hqPVrRyuluG-23" value="&lt;font style=&quot;font-size: 17px;&quot;&gt;RDBMS&lt;/font&gt;" style="shape=cylinder3;whiteSpace=wrap;html=1;boundedLbl=1;backgroundOutline=1;size=15;" vertex="1" parent="1">
          <mxGeometry x="520" y="1560" width="160" height="80" as="geometry" />
        </mxCell>
        <mxCell id="I4dAItv38hqPVrRyuluG-24" value="" style="endArrow=classic;html=1;rounded=0;entryX=0.5;entryY=0;entryDx=0;entryDy=0;entryPerimeter=0;" edge="1" parent="1" target="I4dAItv38hqPVrRyuluG-23">
          <mxGeometry width="50" height="50" relative="1" as="geometry">
            <mxPoint x="600" y="1520" as="sourcePoint" />
            <mxPoint x="650" y="1470" as="targetPoint" />
          </mxGeometry>
        </mxCell>
        <mxCell id="I4dAItv38hqPVrRyuluG-25" value="Microservices Architecture" style="text;whiteSpace=wrap;fontSize=24;" vertex="1" parent="1">
          <mxGeometry x="-280" y="1720" width="600" height="40" as="geometry" />
        </mxCell>
        <mxCell id="I4dAItv38hqPVrRyuluG-26" value="&lt;ul&gt;&lt;li&gt;&lt;font style=&quot;font-size: 14px;&quot;&gt;Definition: A system built as a collection of small, independent services, each focused on a specific business capability.&lt;/font&gt;&lt;/li&gt;&lt;li&gt;&lt;font style=&quot;font-size: 14px;&quot;&gt;Pros:&lt;/font&gt;&lt;/li&gt;&lt;ul&gt;&lt;li&gt;&lt;font style=&quot;&quot;&gt;&lt;span style=&quot;font-size: 14px;&quot;&gt;Independent services can be scaled, deployed, ans developed separately.&lt;/span&gt;&lt;/font&gt;&lt;/li&gt;&lt;li&gt;&lt;font style=&quot;&quot;&gt;&lt;span style=&quot;font-size: 14px;&quot;&gt;Flexibility in technology stack for each service.&lt;/span&gt;&lt;/font&gt;&lt;/li&gt;&lt;li&gt;&lt;font style=&quot;&quot;&gt;&lt;span style=&quot;font-size: 14px;&quot;&gt;Better fault tolerance.&lt;/span&gt;&lt;/font&gt;&lt;/li&gt;&lt;/ul&gt;&lt;li&gt;&lt;span style=&quot;font-size: 14px;&quot;&gt;Cons:&lt;/span&gt;&lt;/li&gt;&lt;ul&gt;&lt;li&gt;&lt;span style=&quot;font-size: 14px;&quot;&gt;Increased complexity in communication and coordination.&lt;/span&gt;&lt;/li&gt;&lt;li&gt;&lt;span style=&quot;font-size: 14px;&quot;&gt;Need for robust DevOps and automation pipelines.&lt;/span&gt;&lt;/li&gt;&lt;/ul&gt;&lt;li&gt;&lt;span style=&quot;font-size: 14px;&quot;&gt;Use Cases: Large-scale applications, e-commerce platforms, modern cloud-based systems.&lt;/span&gt;&lt;/li&gt;&lt;/ul&gt;" style="text;html=1;align=left;verticalAlign=middle;whiteSpace=wrap;rounded=0;" vertex="1" parent="1">
          <mxGeometry x="-280" y="1760" width="600" height="200" as="geometry" />
        </mxCell>
        <mxCell id="I4dAItv38hqPVrRyuluG-27" value="" style="rounded=0;whiteSpace=wrap;html=1;dashed=1;dashPattern=12 12;" vertex="1" parent="1">
          <mxGeometry x="440" y="1680" width="360" height="280" as="geometry" />
        </mxCell>
        <mxCell id="I4dAItv38hqPVrRyuluG-28" value="&lt;font style=&quot;font-size: 14px;&quot;&gt;Microservice&lt;/font&gt;" style="text;html=1;align=center;verticalAlign=middle;whiteSpace=wrap;rounded=0;" vertex="1" parent="1">
          <mxGeometry x="620" y="1690" width="100" height="30" as="geometry" />
        </mxCell>
        <mxCell id="I4dAItv38hqPVrRyuluG-29" value="&lt;font style=&quot;font-size: 14px;&quot;&gt;API&lt;/font&gt;&lt;div&gt;&lt;font style=&quot;font-size: 14px;&quot;&gt;Gateway&lt;/font&gt;&lt;/div&gt;" style="rounded=1;whiteSpace=wrap;html=1;fillColor=#dae8fc;strokeColor=#6c8ebf;" vertex="1" parent="1">
          <mxGeometry x="320" y="1810" width="80" height="60" as="geometry" />
        </mxCell>
        <mxCell id="I4dAItv38hqPVrRyuluG-30" value="&lt;font style=&quot;font-size: 14px;&quot;&gt;Service&lt;/font&gt;" style="rounded=1;whiteSpace=wrap;html=1;fillColor=#ffe6cc;strokeColor=#d79b00;" vertex="1" parent="1">
          <mxGeometry x="490" y="1740" width="120" height="40" as="geometry" />
        </mxCell>
        <mxCell id="I4dAItv38hqPVrRyuluG-31" value="&lt;font style=&quot;font-size: 14px;&quot;&gt;Service&lt;/font&gt;" style="rounded=1;whiteSpace=wrap;html=1;fillColor=#fff2cc;strokeColor=#d6b656;" vertex="1" parent="1">
          <mxGeometry x="490" y="1820" width="120" height="40" as="geometry" />
        </mxCell>
        <mxCell id="I4dAItv38hqPVrRyuluG-32" value="&lt;font style=&quot;font-size: 14px;&quot;&gt;Service&lt;/font&gt;" style="rounded=1;whiteSpace=wrap;html=1;fillColor=#f8cecc;strokeColor=#b85450;" vertex="1" parent="1">
          <mxGeometry x="490" y="1900" width="120" height="40" as="geometry" />
        </mxCell>
        <mxCell id="I4dAItv38hqPVrRyuluG-33" value="&lt;font style=&quot;font-size: 14px;&quot;&gt;Service&lt;/font&gt;" style="rounded=1;whiteSpace=wrap;html=1;fillColor=#e1d5e7;strokeColor=#9673a6;" vertex="1" parent="1">
          <mxGeometry x="670" y="1740" width="120" height="40" as="geometry" />
        </mxCell>
        <mxCell id="I4dAItv38hqPVrRyuluG-34" value="&lt;font style=&quot;font-size: 14px;&quot;&gt;Management / Orchestration&lt;/font&gt;" style="rounded=1;whiteSpace=wrap;html=1;fillColor=#dae8fc;strokeColor=#6c8ebf;" vertex="1" parent="1">
          <mxGeometry x="440" y="1970" width="360" height="40" as="geometry" />
        </mxCell>
        <mxCell id="I4dAItv38hqPVrRyuluG-35" value="" style="endArrow=classic;html=1;rounded=0;entryX=0;entryY=0.5;entryDx=0;entryDy=0;exitX=1;exitY=0.5;exitDx=0;exitDy=0;" edge="1" parent="1" source="I4dAItv38hqPVrRyuluG-29" target="I4dAItv38hqPVrRyuluG-30">
          <mxGeometry width="50" height="50" relative="1" as="geometry">
            <mxPoint x="400" y="1850" as="sourcePoint" />
            <mxPoint x="450" y="1800" as="targetPoint" />
          </mxGeometry>
        </mxCell>
        <mxCell id="I4dAItv38hqPVrRyuluG-36" value="" style="endArrow=classic;html=1;rounded=0;entryX=0;entryY=0.5;entryDx=0;entryDy=0;exitX=1;exitY=0.5;exitDx=0;exitDy=0;" edge="1" parent="1" source="I4dAItv38hqPVrRyuluG-29" target="I4dAItv38hqPVrRyuluG-31">
          <mxGeometry width="50" height="50" relative="1" as="geometry">
            <mxPoint x="420" y="1880" as="sourcePoint" />
            <mxPoint x="470" y="1830" as="targetPoint" />
          </mxGeometry>
        </mxCell>
        <mxCell id="I4dAItv38hqPVrRyuluG-37" value="" style="endArrow=classic;html=1;rounded=0;exitX=1;exitY=0.5;exitDx=0;exitDy=0;entryX=0;entryY=0.5;entryDx=0;entryDy=0;" edge="1" parent="1" source="I4dAItv38hqPVrRyuluG-29" target="I4dAItv38hqPVrRyuluG-32">
          <mxGeometry width="50" height="50" relative="1" as="geometry">
            <mxPoint x="400" y="1920" as="sourcePoint" />
            <mxPoint x="450" y="1870" as="targetPoint" />
          </mxGeometry>
        </mxCell>
        <mxCell id="I4dAItv38hqPVrRyuluG-38" value="" style="endArrow=classic;html=1;rounded=0;entryX=0;entryY=0.5;entryDx=0;entryDy=0;" edge="1" parent="1" target="I4dAItv38hqPVrRyuluG-33">
          <mxGeometry width="50" height="50" relative="1" as="geometry">
            <mxPoint x="610" y="1760" as="sourcePoint" />
            <mxPoint x="660" y="1710" as="targetPoint" />
          </mxGeometry>
        </mxCell>
        <mxCell id="I4dAItv38hqPVrRyuluG-40" value="&lt;font style=&quot;font-size: 24px;&quot;&gt;Event-Driven Architecture&lt;/font&gt;" style="text;html=1;align=left;verticalAlign=middle;whiteSpace=wrap;rounded=0;" vertex="1" parent="1">
          <mxGeometry x="-280" y="2090" width="600" height="30" as="geometry" />
        </mxCell>
        <mxCell id="I4dAItv38hqPVrRyuluG-41" value="&lt;ul&gt;&lt;li&gt;&lt;font style=&quot;font-size: 14px;&quot;&gt;Definition: A system where components communicate through events (messages) instead of direct calls, enabling loose coupling.&lt;/font&gt;&lt;/li&gt;&lt;li&gt;&lt;span style=&quot;font-size: 14px;&quot;&gt;Pros:&lt;/span&gt;&lt;/li&gt;&lt;ul&gt;&lt;li&gt;&lt;span style=&quot;font-size: 14px;&quot;&gt;Highly decoupled architecture.&lt;/span&gt;&lt;/li&gt;&lt;li&gt;&lt;span style=&quot;font-size: 14px;&quot;&gt;Excellent for handling asynchronous workflows.&lt;/span&gt;&lt;/li&gt;&lt;li&gt;&lt;span style=&quot;font-size: 14px;&quot;&gt;Better scalability for high-traffic systems.&lt;/span&gt;&lt;/li&gt;&lt;/ul&gt;&lt;li&gt;&lt;span style=&quot;font-size: 14px;&quot;&gt;Cons:&lt;/span&gt;&lt;/li&gt;&lt;ul&gt;&lt;li&gt;&lt;span style=&quot;font-size: 14px;&quot;&gt;Debugging and tracing become more complex.&lt;/span&gt;&lt;/li&gt;&lt;li&gt;&lt;span style=&quot;font-size: 14px;&quot;&gt;Diffulct to ensure data consitency across services.&lt;/span&gt;&lt;/li&gt;&lt;/ul&gt;&lt;li&gt;&lt;span style=&quot;font-size: 14px;&quot;&gt;Use Cases: Real-time systems, IoT applications, financial trading platforms.&lt;/span&gt;&lt;/li&gt;&lt;/ul&gt;" style="text;html=1;align=left;verticalAlign=middle;whiteSpace=wrap;rounded=0;" vertex="1" parent="1">
          <mxGeometry x="-280" y="2120" width="600" height="190" as="geometry" />
        </mxCell>
        <mxCell id="I4dAItv38hqPVrRyuluG-42" value="&lt;font style=&quot;font-size: 14px;&quot;&gt;Producer 1&lt;/font&gt;" style="rounded=0;whiteSpace=wrap;html=1;" vertex="1" parent="1">
          <mxGeometry x="320" y="2080" width="120" height="80" as="geometry" />
        </mxCell>
        <mxCell id="I4dAItv38hqPVrRyuluG-43" value="&lt;font style=&quot;font-size: 14px;&quot;&gt;Producer 2&lt;/font&gt;" style="rounded=0;whiteSpace=wrap;html=1;" vertex="1" parent="1">
          <mxGeometry x="320" y="2240" width="120" height="80" as="geometry" />
        </mxCell>
        <mxCell id="I4dAItv38hqPVrRyuluG-44" value="&lt;font style=&quot;font-size: 14px;&quot;&gt;Event Broker&lt;/font&gt;" style="rounded=1;whiteSpace=wrap;html=1;" vertex="1" parent="1">
          <mxGeometry x="520" y="2160" width="120" height="80" as="geometry" />
        </mxCell>
        <mxCell id="I4dAItv38hqPVrRyuluG-45" value="" style="endArrow=classic;html=1;rounded=0;entryX=0;entryY=0.5;entryDx=0;entryDy=0;" edge="1" parent="1" target="I4dAItv38hqPVrRyuluG-44">
          <mxGeometry width="50" height="50" relative="1" as="geometry">
            <mxPoint x="440" y="2120" as="sourcePoint" />
            <mxPoint x="490" y="2070" as="targetPoint" />
          </mxGeometry>
        </mxCell>
        <mxCell id="I4dAItv38hqPVrRyuluG-46" value="" style="endArrow=classic;html=1;rounded=0;entryX=0;entryY=0.5;entryDx=0;entryDy=0;" edge="1" parent="1" target="I4dAItv38hqPVrRyuluG-44">
          <mxGeometry width="50" height="50" relative="1" as="geometry">
            <mxPoint x="440" y="2280" as="sourcePoint" />
            <mxPoint x="490" y="2230" as="targetPoint" />
          </mxGeometry>
        </mxCell>
        <mxCell id="I4dAItv38hqPVrRyuluG-47" value="Consumer 1&lt;br&gt;subscribed to A" style="rounded=1;whiteSpace=wrap;html=1;" vertex="1" parent="1">
          <mxGeometry x="760" y="2080" width="160" height="60" as="geometry" />
        </mxCell>
        <mxCell id="I4dAItv38hqPVrRyuluG-48" value="Consumer 2&lt;br&gt;Subscribed to A + B" style="rounded=1;whiteSpace=wrap;html=1;" vertex="1" parent="1">
          <mxGeometry x="760" y="2170" width="160" height="60" as="geometry" />
        </mxCell>
        <mxCell id="I4dAItv38hqPVrRyuluG-49" value="Consumer 3&lt;br&gt;Subscribed to B" style="rounded=1;whiteSpace=wrap;html=1;" vertex="1" parent="1">
          <mxGeometry x="760" y="2260" width="160" height="60" as="geometry" />
        </mxCell>
        <mxCell id="I4dAItv38hqPVrRyuluG-50" value="&lt;b&gt;A&lt;/b&gt;" style="text;html=1;align=center;verticalAlign=middle;whiteSpace=wrap;rounded=0;" vertex="1" parent="1">
          <mxGeometry x="460" y="2130" width="60" height="30" as="geometry" />
        </mxCell>
        <mxCell id="I4dAItv38hqPVrRyuluG-51" value="&lt;b&gt;B&lt;/b&gt;" style="text;html=1;align=center;verticalAlign=middle;whiteSpace=wrap;rounded=0;" vertex="1" parent="1">
          <mxGeometry x="440" y="2220" width="60" height="30" as="geometry" />
        </mxCell>
        <mxCell id="I4dAItv38hqPVrRyuluG-53" value="" style="endArrow=classic;html=1;rounded=0;entryX=0;entryY=0.5;entryDx=0;entryDy=0;exitX=1;exitY=0.25;exitDx=0;exitDy=0;" edge="1" parent="1" source="I4dAItv38hqPVrRyuluG-44" target="I4dAItv38hqPVrRyuluG-47">
          <mxGeometry width="50" height="50" relative="1" as="geometry">
            <mxPoint x="640" y="2200" as="sourcePoint" />
            <mxPoint x="690" y="2150" as="targetPoint" />
          </mxGeometry>
        </mxCell>
        <mxCell id="I4dAItv38hqPVrRyuluG-54" value="&lt;b&gt;A&lt;/b&gt;" style="text;html=1;align=center;verticalAlign=middle;whiteSpace=wrap;rounded=0;" vertex="1" parent="1">
          <mxGeometry x="660" y="2120" width="60" height="30" as="geometry" />
        </mxCell>
        <mxCell id="I4dAItv38hqPVrRyuluG-55" value="" style="endArrow=classic;html=1;rounded=0;entryX=0;entryY=0.5;entryDx=0;entryDy=0;" edge="1" parent="1">
          <mxGeometry width="50" height="50" relative="1" as="geometry">
            <mxPoint x="640" y="2190" as="sourcePoint" />
            <mxPoint x="760" y="2190" as="targetPoint" />
          </mxGeometry>
        </mxCell>
        <mxCell id="I4dAItv38hqPVrRyuluG-56" value="" style="endArrow=classic;html=1;rounded=0;entryX=0;entryY=0.5;entryDx=0;entryDy=0;" edge="1" parent="1">
          <mxGeometry width="50" height="50" relative="1" as="geometry">
            <mxPoint x="640" y="2210" as="sourcePoint" />
            <mxPoint x="760" y="2210" as="targetPoint" />
          </mxGeometry>
        </mxCell>
        <mxCell id="I4dAItv38hqPVrRyuluG-57" value="" style="endArrow=classic;html=1;rounded=0;entryX=0;entryY=0.5;entryDx=0;entryDy=0;exitX=1;exitY=0.25;exitDx=0;exitDy=0;" edge="1" parent="1" target="I4dAItv38hqPVrRyuluG-49">
          <mxGeometry width="50" height="50" relative="1" as="geometry">
            <mxPoint x="640" y="2230" as="sourcePoint" />
            <mxPoint x="760" y="2160" as="targetPoint" />
          </mxGeometry>
        </mxCell>
        <mxCell id="I4dAItv38hqPVrRyuluG-58" value="&lt;b&gt;B&lt;/b&gt;" style="text;html=1;align=center;verticalAlign=middle;whiteSpace=wrap;rounded=0;" vertex="1" parent="1">
          <mxGeometry x="655" y="2250" width="60" height="30" as="geometry" />
        </mxCell>
        <mxCell id="I4dAItv38hqPVrRyuluG-59" value="&lt;b&gt;A + B&lt;/b&gt;" style="text;html=1;align=center;verticalAlign=middle;whiteSpace=wrap;rounded=0;" vertex="1" parent="1">
          <mxGeometry x="670" y="2190" width="60" height="30" as="geometry" />
        </mxCell>
        <mxCell id="I4dAItv38hqPVrRyuluG-60" value="Factors Influencing Architecture Selection&lt;div&gt;&lt;br&gt;&lt;/div&gt;&lt;div&gt;&lt;ul&gt;&lt;li&gt;Business Needs: What problem are we solving? What is the business goal?&lt;/li&gt;&lt;li&gt;Scalability: How much traffic and data should the system handle?&lt;/li&gt;&lt;li&gt;Performance: How fast should the system respond to users?&lt;/li&gt;&lt;li&gt;Maintainability: How easy is it to make updates, fix bugs, and evolve the system over time?&lt;/li&gt;&lt;/ul&gt;&lt;/div&gt;" style="text;html=1;align=left;verticalAlign=middle;whiteSpace=wrap;rounded=0;fontSize=14;" vertex="1" parent="1">
          <mxGeometry x="-280" y="2370" width="640" height="110" as="geometry" />
        </mxCell>
        <mxCell id="I4dAItv38hqPVrRyuluG-61" value="" style="endArrow=none;html=1;rounded=0;" edge="1" parent="1">
          <mxGeometry width="50" height="50" relative="1" as="geometry">
            <mxPoint x="-720" y="2520" as="sourcePoint" />
            <mxPoint x="1602.400146484375" y="2520" as="targetPoint" />
          </mxGeometry>
        </mxCell>
        <mxCell id="I4dAItv38hqPVrRyuluG-63" value="What is Multi-Tier Architecture?" style="text;html=1;align=left;verticalAlign=middle;whiteSpace=wrap;rounded=0;fontSize=24;" vertex="1" parent="1">
          <mxGeometry x="-640" y="2570" width="560" height="30" as="geometry" />
        </mxCell>
        <mxCell id="I4dAItv38hqPVrRyuluG-64" value="&lt;ul&gt;&lt;li&gt;&lt;span style=&quot;font-size: 14px;&quot;&gt;Multi-Tier Architecture is a software design pattern that structures applications into multiple layers, each responsible for specific functions. This separation enhances scalability,&amp;nbsp;&lt;/span&gt;&lt;font style=&quot;font-size: 14px;&quot;&gt;maintainability, and security.&lt;/font&gt;&lt;/li&gt;&lt;li&gt;&lt;font style=&quot;font-size: 14px;&quot;&gt;Key points:&lt;/font&gt;&lt;/li&gt;&lt;ul&gt;&lt;li&gt;&lt;font style=&quot;&quot;&gt;&lt;span style=&quot;font-size: 14px;&quot;&gt;Organizes applications into independent layers.&lt;/span&gt;&lt;/font&gt;&lt;/li&gt;&lt;li&gt;&lt;font style=&quot;&quot;&gt;&lt;span style=&quot;font-size: 14px;&quot;&gt;Separates concerns: UI, business logic, and data storage.&lt;/span&gt;&lt;/font&gt;&lt;/li&gt;&lt;li&gt;&lt;font style=&quot;&quot;&gt;&lt;span style=&quot;font-size: 14px;&quot;&gt;Enables better scalability, performance, and security.&lt;/span&gt;&lt;/font&gt;&lt;/li&gt;&lt;li&gt;&lt;font style=&quot;&quot;&gt;&lt;span style=&quot;font-size: 14px;&quot;&gt;Used in web applications, enterprise systems, and cloud architectures.&lt;/span&gt;&lt;/font&gt;&lt;/li&gt;&lt;/ul&gt;&lt;/ul&gt;" style="text;html=1;align=left;verticalAlign=middle;whiteSpace=wrap;rounded=0;" vertex="1" parent="1">
          <mxGeometry x="-640" y="2600" width="560" height="160" as="geometry" />
        </mxCell>
        <mxCell id="I4dAItv38hqPVrRyuluG-65" value="Actor" style="shape=umlActor;verticalLabelPosition=bottom;verticalAlign=top;html=1;outlineConnect=0;" vertex="1" parent="1">
          <mxGeometry x="170" y="2520" width="30" height="60" as="geometry" />
        </mxCell>
        <mxCell id="I4dAItv38hqPVrRyuluG-68" value="&lt;font style=&quot;font-size: 14px;&quot;&gt;Presentation Layer&lt;/font&gt;&lt;br&gt;interacts with user" style="rounded=0;whiteSpace=wrap;html=1;" vertex="1" parent="1">
          <mxGeometry y="2640" width="360" height="60" as="geometry" />
        </mxCell>
        <mxCell id="I4dAItv38hqPVrRyuluG-69" value="&lt;font style=&quot;font-size: 14px;&quot;&gt;Business Logic Layer&lt;/font&gt;&lt;div&gt;handles business logic&lt;/div&gt;" style="rounded=0;whiteSpace=wrap;html=1;" vertex="1" parent="1">
          <mxGeometry y="2740" width="360" height="60" as="geometry" />
        </mxCell>
        <mxCell id="I4dAItv38hqPVrRyuluG-70" value="&lt;font style=&quot;font-size: 14px;&quot;&gt;Data Access Layer&lt;/font&gt;&lt;div&gt;Access data from database&lt;/div&gt;" style="rounded=0;whiteSpace=wrap;html=1;" vertex="1" parent="1">
          <mxGeometry y="2840" width="360" height="60" as="geometry" />
        </mxCell>
        <mxCell id="I4dAItv38hqPVrRyuluG-71" value="" style="shape=cylinder3;whiteSpace=wrap;html=1;boundedLbl=1;backgroundOutline=1;size=15;" vertex="1" parent="1">
          <mxGeometry x="480" y="2820" width="60" height="80" as="geometry" />
        </mxCell>
      </root>
    </mxGraphModel>
  </diagram>
</mxfile>
